<svg width="18" height="20" viewBox="0 0 18 20" fill="none" xmlns="http://www.w3.org/2000/svg">
<g clip-path="url(#clip0)">
<path d="M15.0454 5.09091C15.0454 7.57266 12.7621 9.68181 9.81815 9.68181C6.87422 9.68181 4.59088 7.57266 4.59088 5.09091C4.59088 2.60916 6.87422 0.5 9.81815 0.5C12.7621 0.5 15.0454 2.60916 15.0454 5.09091Z" stroke="#CC9D49"/>
<rect x="1.63641" y="4.36365" width="16.3636" height="14.5454" fill="#A16E13"/>
<path d="M13.409 5.09091C13.409 7.57266 11.1257 9.68181 8.18174 9.68181C5.2378 9.68181 2.95447 7.57266 2.95447 5.09091C2.95447 2.60916 5.2378 0.5 8.18174 0.5C11.1257 0.5 13.409 2.60916 13.409 5.09091Z" stroke="#CC9D49"/>
<rect y="5.09091" width="16.3636" height="14.5454" fill="#CC9D49"/>
</g>
<defs>
<clipPath id="clip0">
<rect width="18" height="20" fill="white"/>
</clipPath>
</defs>
</svg>
