<svg width="37" height="26" viewBox="0 0 37 26" fill="none" xmlns="http://www.w3.org/2000/svg">
<path d="M35.8636 12.5C35.8636 15.7591 34.1034 18.7478 31.1821 20.9388C28.2605 23.13 24.2016 24.5 19.6969 24.5C15.1923 24.5 11.1333 23.13 8.21183 20.9388C5.29047 18.7478 3.53027 15.7591 3.53027 12.5C3.53027 9.24088 5.29047 6.25219 8.21183 4.06117C11.1333 1.87003 15.1923 0.5 19.6969 0.5C24.2016 0.5 28.2605 1.87003 31.1821 4.06117C34.1034 6.25219 35.8636 9.24088 35.8636 12.5Z" fill="black" stroke="white"/>
<line x1="6.38992" y1="19.3157" x2="0.329315" y2="24.6187" stroke="white"/>
<line x1="9.24906" y1="21.6864" x2="0.158147" y2="24.7167" stroke="white"/>
<path d="M7.99997 18.5L13.9953 19.6182L4.15911 22.8164L7.99997 18.5Z" fill="black"/>
<path d="M9.39131 17.1448L15.0306 19.8152L4.80611 21.3767L9.39131 17.1448Z" fill="black"/>
<path d="M19.2168 15.2295H18.0566C17.8574 14.6729 17.7578 14.2715 17.7578 14.0254C17.7578 13.6035 17.834 13.1729 17.9863 12.7334C18.1445 12.2939 18.4961 11.7695 19.041 11.1602C19.5918 10.5449 19.9609 10.0732 20.1484 9.74512C20.3359 9.41699 20.4297 9.09766 20.4297 8.78711C20.4297 7.75586 19.8057 7.24023 18.5576 7.24023C17.96 7.24023 17.4385 7.4541 16.9932 7.88184L16.3516 6.625C16.9434 6.13867 17.8252 5.89551 18.9971 5.89551C19.876 5.89551 20.6055 6.14453 21.1855 6.64258C21.7715 7.14063 22.0645 7.80566 22.0645 8.6377C22.0645 9.05957 21.9883 9.4668 21.8359 9.85938C21.6895 10.2461 21.4609 10.6035 21.1504 10.9316L19.8672 12.3027C19.3516 12.9355 19.0938 13.6445 19.0938 14.4297C19.0938 14.5527 19.1348 14.8193 19.2168 15.2295ZM18.8477 16.5303C19.2109 16.5303 19.5215 16.6592 19.7793 16.917C20.0371 17.1748 20.166 17.4854 20.166 17.8486C20.166 18.2119 20.0371 18.5254 19.7793 18.7891C19.5215 19.0469 19.2109 19.1758 18.8477 19.1758C18.4844 19.1758 18.1738 19.0469 17.916 18.7891C17.6582 18.5254 17.5293 18.2119 17.5293 17.8486C17.5293 17.4854 17.6582 17.1748 17.916 16.917C18.1738 16.6592 18.4844 16.5303 18.8477 16.5303Z" fill="white"/>
</svg>
