<svg width="15" height="14" viewBox="0 0 15 14" fill="none" xmlns="http://www.w3.org/2000/svg">
<path d="M12.9131 2.61542H11.9346L12.3261 0.615728L11.9346 0H0.391524L0 0.692339L2.34794 13.6155L2.73886 14H9.52167L9.91319 13.6155L11.0216 7.61502H12.9131C14.087 7.61502 15 6.5382 15 5.15353C15 3.76956 14.087 2.61542 12.9131 2.61542ZM11.3476 1.07681L10.7606 4.46119H1.49994L0.912955 1.07681H11.3476ZM12.9131 6.5382H11.2826L11.8696 3.61563H12.9131C13.565 3.61563 14.152 4.23064 14.152 5.07691C14.152 5.92319 13.565 6.5382 12.9131 6.5382Z" fill="white"/>
</svg>
